
<svg xmlns="http://www.w3.org/2000/svg" version="1.1" xmlns:xlink="http://www.w3.org/1999/xlink" preserveAspectRatio="none" x="0px" y="0px" width="500px" height="600px" viewBox="0 0 500 600">
<defs>
<g id="fruits_0_Layer0_0_FILL">
<path fill="#FF0000" stroke="none" d="
M 35.4 29.25
Q 35.4 17.15 30.2 8.55 25.05 0 17.7 0 10.35 0 5.15 8.55 0 17.15 0 29.25 0 41.35 5.15 49.9 10.35 58.5 17.7 58.5 25.05 58.5 30.2 49.9 35.4 41.35 35.4 29.25 Z"/>
</g>

<g id="Ground_0_Layer0_0_FILL">
<path fill="#663300" stroke="none" d="
M 440 121.5
L 440 47.65 -70.75 47.65 -70.75 121.5 440 121.5 Z"/>
</g>

<g id="Sky_0_Layer0_0_FILL">
<path fill="#3496D4" stroke="none" d="
M 138.45 -152.45
L 138.45 -160 -380 -160 -380 -144.6 -375.35 -144.6 -378.45 -155.35
Q -376.9 -159.95 -370.65 -159.15 -366.9 -158.5 -363.05 -158.45 -360.9 -155.95 -359.95 -151.05 -359.55 -148.8 -355.35 -149.2
L -353.85 -147.7 -340 -149.2 -338.45 -133.85 -350.75 -133.85 -352.3 -121.5
Q -358.45 -120 -360.9 -124.05 -362.25 -126.25 -364.6 -127.7 -365.4 -126.95 -365.9 -126 -367.25 -123.45 -370.75 -123.05
L -380 -123.05 -380 -73.85 138.45 -73.85 138.45 -124.6 136.95 -126.15
Q 129.3 -126.15 121.55 -126.15 119.3 -125.8 118.5 -126.95 117.75 -128.1 118.45 -130.75 115 -133.35 112.05 -128.9 110.75 -126.95 107.7 -126.15 105.5 -126.15 104.05 -127.35 101 -129.8 98.45 -130.75 98.45 -136.05 97.35 -141.3 96.95 -143.35 96 -144.6
L 92.3 -140 93.85 -146.15
Q 95.1 -145.7 96 -144.6
L 98.45 -147.7 116.95 -146.15 124.6 -153.85 138.45 -152.45
M 24.65 -101.45
Q 26.9 -104.1 27.7 -106.15
L 63.1 -107.7 69.25 -98.45 75.4 -106.15 86.15 -106.15 92.3 -95.35
Q 74.25 -82.45 44.6 -82.95 40.8 -83 36.95 -83.05
L 29.25 -86.15 23.1 -76.9 1.55 -76.9
Q -6.7 -79.8 -2 -83.15 -1.75 -83.35 -1.45 -83.55
L 0 -95.35 21.55 -95.35
Q 22.95 -99.45 24.65 -101.45
M -324.5 -120.05
Q -324.55 -120.05 -324.6 -120
L -324.6 -121.5 -324.5 -120.05
Q -310.5 -127.65 -300.35 -134.4 -300 -134.6 -300 -135.35
L -278.45 -135.35
Q -277.7 -133.85 -276.45 -132.85 -274.25 -131.05 -275.35 -126.15 -261.95 -117.45 -244.05 -124.85 -240.75 -126.25 -236.9 -126.15
L -236.9 -106.15
Q -242.8 -103.6 -252.35 -103.85 -256.95 -104.55 -261.5 -104.6
L -270.75 -95.35 -284.6 -95.35
Q -287.05 -97.9 -289.05 -102.45 -290.05 -104.7 -292.3 -106.15 -294.55 -106.15 -296.85 -105.8 -299.95 -105.35 -301.5 -103.05 -306.35 -99.4 -315.35 -100 -319.15 -99.95 -323.05 -100
L -324.5 -120.05
M -66.15 -123.05
L -72.3 -110.75 -86.15 -110.75 -93.85 -118.45
Q -95.35 -117.6 -96.55 -116.55 -99.25 -114.1 -100 -110.75 -103.5 -108.85 -107.6 -108.3 -113 -107.8 -113.85 -112.3 -113.85 -113.1 -113.7 -113.8 -112.4 -119.1 -116.9 -118.45
L -129.2 -116.9 -130.75 -135.35
Q -129.25 -136.8 -126.8 -138.15 -126.05 -138.5 -125.1 -138.7
L -124.6 -140 -113.85 -146.15 -103.05 -146.15
Q -99.65 -142.95 -96.5 -139.1 -94.2 -136.3 -90.75 -136.9 -88.25 -141.5 -81.45 -140.75 -77.7 -140.05 -73.85 -140 -68.9 -143.4 -62.8 -145.3 -59.35 -146.2 -55.4 -146.15 -51 -144.85 -48.65 -138.65 -47.7 -136.15 -46.15 -133.85
L -46.15 -124.6 -66.15 -123.05 Z"/>
</g>

<g id="Start_0_Layer0_0_FILL">
<path fill="#FFCC33" stroke="none" d="
M 352.35 -76.25
L 352.35 -27 500 -27 500 -76.25 352.35 -76.25 Z"/>
</g>

<g id="Home_0_Layer0_0_FILL">
<path fill="#663300" stroke="none" d="
M 146.15 118.45
L 146.15 218.45 203.05 218.45 203.05 118.45 146.15 118.45
M 121.55 84.6
L 121.55 64.6 72.3 64.6 72.3 84.6 121.55 84.6
M 203.05 79.95
L 203.05 63.05 149.25 63.05 149.25 79.95 203.05 79.95
M 272.3 76.9
L 272.3 63.05 221.55 63.05 221.55 76.9 272.3 76.9 Z"/>

<path fill="#FF0000" stroke="none" d="
M 330.4 218.45
Q 332.3 203.9 332.3 188.45 332.3 110.4 283.6 55.2 234.95 0 166.15 0 97.35 0 48.65 55.2 0 110.4 0 188.45 0 203.9 1.9 218.45
L 146.15 218.45 146.15 118.45 203.05 118.45 203.05 218.45 330.4 218.45
M 272.3 63.05
L 272.3 76.9 221.55 76.9 221.55 63.05 272.3 63.05
M 203.05 63.05
L 203.05 79.95 149.25 79.95 149.25 63.05 203.05 63.05
M 121.55 64.6
L 121.55 84.6 72.3 84.6 72.3 64.6 121.55 64.6 Z"/>
</g>

<g id="End_0_Layer0_0_FILL">
<path fill="#FFCC33" stroke="none" d="
M 129.3 32.75
L 129.3 0 0 0 0 32.75 129.3 32.75 Z"/>
</g>

<g id="TryAgain_0_Layer0_0_FILL">
<path fill="#003300" stroke="none" d="
M 198.45 49.25
L 198.45 0 0 0 0 49.25 198.45 49.25 Z"/>
</g>

<g id="lsd_12_copy_2_0_Layer0_0_FILL">
<path fill="#999933" stroke="none" d="
M -68.85 17.55
L -54.4 14.65 -39.95 11.75
Q -41.05 7.8 -41.8 3.5 -42.45 -0.7 -42.6 -4.7
L -68.85 17.55
M -35 23.8
Q -38.05 18.2 -39.95 11.75
L -54.4 14.65 -35 23.8 Z"/>

<path fill="#660000" stroke="none" d="
M 25.35 -7.45
Q 22.2 -26.9 10.1 -39 -1.95 -51.05 -15.9 -48.8 -29.75 -46.45 -37.35 -31.25 -43.35 -19.25 -42.6 -4.7 -42.45 -0.7 -41.8 3.5 -41.05 7.8 -39.95 11.75 -38.05 18.2 -35 23.8 -31.5 30 -26.55 35.1 -14.5 47.25 -0.55 44.9 9.95 43.2 16.85 34.05
L -27.55 12.85 19.2 5.2 26.1 8.5
Q 26.7 0.95 25.35 -7.45
M -24.55 -16.65
Q -22.9 -15.5 -22.55 -13.45 -22.25 -11.4 -23.45 -9.8 -24.55 -8.15 -26.6 -7.8 -28.6 -7.5 -30.3 -8.7 -31.95 -9.9 -32.25 -11.85 -32.55 -13.85 -31.4 -15.55 -30.25 -17.2 -28.2 -17.5 -26.15 -17.8 -24.55 -16.65
M 26.1 8.5
L 19.2 5.2 -27.55 12.85 16.85 34.05 21.45 36.25 68.15 28.65 26.1 8.5 Z"/>

<path fill="#FFFFFF" stroke="none" d="
M -22.55 -13.45
Q -22.9 -15.5 -24.55 -16.65 -26.15 -17.8 -28.2 -17.5 -30.25 -17.2 -31.4 -15.55 -32.55 -13.85 -32.25 -11.85 -31.95 -9.9 -30.3 -8.7 -28.6 -7.5 -26.6 -7.8 -24.55 -8.15 -23.45 -9.8 -22.25 -11.4 -22.55 -13.45
M -29.15 -14.95
Q -27.95 -15.15 -27 -14.45 -26 -13.75 -25.8 -12.55 -25.65 -11.35 -26.3 -10.4 -26.95 -9.4 -28.2 -9.25 -29.4 -9 -30.35 -9.75 -31.3 -10.4 -31.55 -11.65 -31.7 -12.75 -31 -13.8 -30.3 -14.7 -29.15 -14.95 Z"/>

<path fill="#000000" stroke="none" d="
M -27 -14.45
Q -27.95 -15.15 -29.15 -14.95 -30.3 -14.7 -31 -13.8 -31.7 -12.75 -31.55 -11.65 -31.3 -10.4 -30.35 -9.75 -29.4 -9 -28.2 -9.25 -26.95 -9.4 -26.3 -10.4 -25.65 -11.35 -25.8 -12.55 -26 -13.75 -27 -14.45 Z"/>
</g>

<path id="fruits_0_Layer0_0_1_STROKES" stroke="#990000" stroke-width="1" stroke-linejoin="round" stroke-linecap="round" fill="none" d="
M 35.4 29.25
Q 35.4 41.35 30.2 49.9 25.05 58.5 17.7 58.5 10.35 58.5 5.15 49.9 0 41.35 0 29.25 0 17.15 5.15 8.55 10.35 0 17.7 0 25.05 0 30.2 8.55 35.4 17.15 35.4 29.25 Z"/>

<path id="Ground_0_Layer0_0_1_STROKES" stroke="#663300" stroke-width="1" stroke-linejoin="round" stroke-linecap="round" fill="none" d="
M -70.75 47.65
L 440 47.65 440 121.5 -70.75 121.5 -70.75 47.65 Z"/>

<path id="Sky_0_Layer0_0_1_STROKES" stroke="#279DAF" stroke-width="1" stroke-linejoin="round" stroke-linecap="round" fill="none" d="
M -380 -144.6
L -380 -160
M -380 -123.05
L -380 -73.85 138.45 -73.85 138.45 -124.6"/>

<path id="Start_0_Layer0_0_1_STROKES" stroke="#FFCC00" stroke-width="1" stroke-linejoin="round" stroke-linecap="round" fill="none" d="
M 352.35 -76.25
L 500 -76.25 500 -27 352.35 -27 352.35 -76.25 Z"/>

<path id="Home_0_Layer0_0_1_STROKES" stroke="#000000" stroke-width="3" stroke-linejoin="round" stroke-linecap="round" fill="none" d="
M 1.9 218.45
Q 0 203.9 0 188.45 0 110.4 48.65 55.2 97.35 0 166.15 0 234.95 0 283.6 55.2 332.3 110.4 332.3 188.45 332.3 203.9 330.4 218.45
M 203.05 218.45
L 146.15 218.45
M 221.55 63.05
L 272.3 63.05 272.3 76.9 221.55 76.9 221.55 63.05 Z
M 149.25 63.05
L 203.05 63.05 203.05 79.95 149.25 79.95 149.25 63.05 Z
M 72.3 64.6
L 121.55 64.6 121.55 84.6 72.3 84.6 72.3 64.6 Z
M 146.15 218.45
L 146.15 118.45 203.05 118.45 203.05 218.45"/>

<path id="End_0_Layer0_0_1_STROKES" stroke="#FFCC00" stroke-width="1" stroke-linejoin="round" stroke-linecap="round" fill="none" d="
M 0 0
L 129.3 0 129.3 32.75 0 32.75 0 0 Z"/>

<path id="TryAgain_0_Layer0_0_1_STROKES" stroke="#000000" stroke-width="3" stroke-linejoin="round" stroke-linecap="round" fill="none" d="
M 0 0
L 198.45 0 198.45 49.25 0 49.25 0 0 Z"/>

<path id="lsd_12_copy_2_0_Layer0_0_1_STROKES" stroke="#000000" stroke-width="1" stroke-linejoin="round" stroke-linecap="round" fill="none" d="
M -42.6 -4.7
Q -43.35 -19.25 -37.35 -31.25 -29.75 -46.45 -15.9 -48.8 -1.95 -51.05 10.1 -39 22.2 -26.9 25.35 -7.45 26.7 0.95 26.1 8.5
L 68.15 28.65 21.45 36.25 16.85 34.05
Q 9.95 43.2 -0.55 44.9 -14.5 47.25 -26.55 35.1 -31.5 30 -35 23.8
L -54.4 14.65 -68.85 17.55 -42.6 -4.7
Q -42.45 -0.7 -41.8 3.5 -41.05 7.8 -39.95 11.75 -38.05 18.2 -35 23.8
M -25.8 -12.55
Q -25.65 -11.35 -26.3 -10.4 -26.95 -9.4 -28.2 -9.25 -29.4 -9 -30.35 -9.75 -31.3 -10.4 -31.55 -11.65 -31.7 -12.75 -31 -13.8 -30.3 -14.7 -29.15 -14.95 -27.95 -15.15 -27 -14.45 -26 -13.75 -25.8 -12.55 Z
M -22.55 -13.45
Q -22.25 -11.4 -23.45 -9.8 -24.55 -8.15 -26.6 -7.8 -28.6 -7.5 -30.3 -8.7 -31.95 -9.9 -32.25 -11.85 -32.55 -13.85 -31.4 -15.55 -30.25 -17.2 -28.2 -17.5 -26.15 -17.8 -24.55 -16.65 -22.9 -15.5 -22.55 -13.45 Z
M -54.4 14.65
L -39.95 11.75
M 16.85 34.05
L -27.55 12.85 19.2 5.2 26.1 8.5"/>
</defs>

<g id="Fruite1" transform="matrix( 1, 0, 0, 1, -112.25,469.15) ">
<g transform="matrix( 1, 0, 0, 1, 0,0) ">
<use xlink:href="#fruits_0_Layer0_0_FILL"/>

<use xlink:href="#fruits_0_Layer0_0_1_STROKES"/>
</g>
</g>

<g id="Fruite2" transform="matrix( 1, 0, 0, 1, -221.5,469.15) ">
<g transform="matrix( 1, 0, 0, 1, 0,0) ">
<use xlink:href="#fruits_0_Layer0_0_FILL"/>

<use xlink:href="#fruits_0_Layer0_0_1_STROKES"/>
</g>
</g>

<g id="Fruite3" transform="matrix( 1, 0, 0, 1, -272.35,432.25) ">
<g transform="matrix( 1, 0, 0, 1, 0,0) ">
<use xlink:href="#fruits_0_Layer0_0_FILL"/>

<use xlink:href="#fruits_0_Layer0_0_1_STROKES"/>
</g>
</g>

<g id="Fruite4" transform="matrix( 1, 0, 0, 1, -356.9,432.25) ">
<g transform="matrix( 1, 0, 0, 1, 0,0) ">
<use xlink:href="#fruits_0_Layer0_0_FILL"/>

<use xlink:href="#fruits_0_Layer0_0_1_STROKES"/>
</g>
</g>

<g id="Fruite5" transform="matrix( 1, 0, 0, 1, -447.75,410.65) ">
<g transform="matrix( 1, 0, 0, 1, 0,0) ">
<use xlink:href="#fruits_0_Layer0_0_FILL"/>

<use xlink:href="#fruits_0_Layer0_0_1_STROKES"/>
</g>
</g>

<g transform="matrix( 1, 0, 0, 1, 67.75,480) ">
<g transform="matrix( 1, 0, 0, 1, 0,0) ">
<use xlink:href="#Ground_0_Layer0_0_FILL"/>

<use xlink:href="#Ground_0_Layer0_0_1_STROKES"/>
</g>
</g>

<g transform="matrix( 1, 0, 0, 1, 369.3,160) ">
<g transform="matrix( 1, 0, 0, 1, 0,0) ">
<use xlink:href="#Sky_0_Layer0_0_FILL"/>

<use xlink:href="#Sky_0_Layer0_0_1_STROKES"/>
</g>
</g>

<g id="Fruite6" transform="matrix( 1, 0, 0, 1, -596.95,410.65) ">
<g transform="matrix( 1, 0, 0, 1, 0,0) ">
<use xlink:href="#fruits_0_Layer0_0_FILL"/>

<use xlink:href="#fruits_0_Layer0_0_1_STROKES"/>
</g>
</g>

<g id="btnStart" transform="matrix( 1, 0, 0, 1, -187.2,366.2) ">
<g transform="matrix( 1, 0, 0, 1, 0,0) ">
<use xlink:href="#Start_0_Layer0_0_FILL"/>

<use xlink:href="#Start_0_Layer0_0_1_STROKES"/>
</g>

<g transform="matrix( 1.2076873779296875, 0, 0, 2.222991943359375, 376.8,-72.45) ">
<clipPath id="Mask_Mask_1">
<rect x="-2" y="-2" width="104" height="22.45" fill="#FFFFFF" stroke="none"/>
</clipPath>

<text clip-path="url(#Mask_Mask_1)" writing-mode="lr"><tspan x="0" y="14.45" baseline-shift="0%" font-family="Wide Latin" font-size="15" fill="#000000" xml:space="preserve">Start</tspan></text>
</g>
</g>

<g id="Fruite7" transform="matrix( 1, 0, 0, 1, -535.35,339.2) ">
<g transform="matrix( 1, 0, 0, 1, 0,0) ">
<use xlink:href="#fruits_0_Layer0_0_FILL"/>

<use xlink:href="#fruits_0_Layer0_0_1_STROKES"/>
</g>
</g>

<g id="Fruite8" transform="matrix( 1, 0, 0, 1, -321.5,320) ">
<g transform="matrix( 1, 0, 0, 1, 0,0) ">
<use xlink:href="#fruits_0_Layer0_0_FILL"/>

<use xlink:href="#fruits_0_Layer0_0_1_STROKES"/>
</g>
</g>

<g id="home" transform="matrix( 0.6479034423828125, 0, 0, 0.660888671875, -3,371.55) ">
<g id="fruite" transform="matrix( 1, 0, 0, 1, 0,36.45) ">
<g transform="matrix( 1, 0, 0, 1, 0,0) ">
<use xlink:href="#Home_0_Layer0_0_FILL"/>

<use xlink:href="#Home_0_Layer0_0_1_STROKES"/>
</g>
</g>

<g id="End" transform="matrix( 1, 0, 0, 1, 95.4,0) ">
<g transform="matrix( 1, 0, 0, 1, 0,0) ">
<use xlink:href="#End_0_Layer0_0_FILL"/>

<use xlink:href="#End_0_Layer0_0_1_STROKES"/>
</g>

<g transform="matrix( 1, 0, 0, 1, 16.35,2) ">
<clipPath id="Mask_Mask_2">
<rect x="-2" y="-2" width="104" height="28.65" fill="#FFFFFF" stroke="none"/>
</clipPath>

<text clip-path="url(#Mask_Mask_2)" writing-mode="lr"><tspan x="0" y="19.3" baseline-shift="0%" font-family="Wide Latin" font-size="20" fill="#000000" xml:space="preserve">END</tspan></text>
</g>
</g>
</g>

<g id="btnAgain" transform="matrix( 1, 0, 0, 1, 145.45,167.95) ">
<g transform="matrix( 1, 0, 0, 1, 0,0) ">
<use xlink:href="#TryAgain_0_Layer0_0_FILL"/>

<use xlink:href="#TryAgain_0_Layer0_0_1_STROKES"/>
</g>

<g transform="matrix( 1, 0, 0, 1, 16.95,10) ">
<clipPath id="Mask_Mask_3">
<rect x="-2" y="-2" width="172.9" height="28.65" fill="#FFFFFF" stroke="none"/>
</clipPath>

<text clip-path="url(#Mask_Mask_3)" writing-mode="lr"><tspan x="0" y="19.3" baseline-shift="0%" font-family="Wide Latin" font-size="20" fill="#99FFCC" xml:space="preserve">Try Again</tspan></text>
</g>
</g>

<g id="winner" transform="matrix( 1, 0, 0, 1, 81.4,93.4) ">
<g transform="matrix( 1, 0, 0, 1, 2,2) ">
<clipPath id="Mask_Mask_4">
<rect x="-2" y="-2" width="372.75" height="65.55" fill="#FFFFFF" stroke="none"/>
</clipPath>

<text clip-path="url(#Mask_Mask_4)" writing-mode="lr"><tspan x="0" y="48.2" baseline-shift="0%" font-family="Wide Latin" font-size="50" fill="#000033" xml:space="preserve">Winner</tspan></text>
</g>
</g>

<g id="lost" transform="matrix( 1, 0, 0, 1, 145.45,223.75) ">
<g transform="matrix( 1, 0, 0, 1, 2,2) ">
<clipPath id="Mask_Mask_5">
<rect x="-2" y="-2" width="215.8" height="65.55" fill="#FFFFFF" stroke="none"/>
</clipPath>

<text clip-path="url(#Mask_Mask_5)" writing-mode="lr"><tspan x="0" y="48.2" baseline-shift="0%" font-family="Wide Latin" font-size="50" fill="#FF0000" xml:space="preserve">Lost</tspan></text>
</g>
</g>

<g transform="matrix( 1, 0, 0, 1, 6.7,565.25) ">
<g transform="matrix( 1, 0, 0, 1, 2,2) ">
<clipPath id="Mask_Mask_6">
<rect x="-2" y="-2" width="125.15" height="34.75" fill="#FFFFFF" stroke="none"/>
</clipPath>

<text clip-path="url(#Mask_Mask_6)" writing-mode="lr"><tspan x="0" y="24.1" baseline-shift="0%" font-family="Wide Latin" font-size="25" fill="#330000" xml:space="preserve">Score</tspan></text>
</g>
</g>

<g transform="matrix( 1, 0, 0, 1, -412.3,37.6) ">
<clipPath id="Mask_Mask_7">
<rect x="-2" y="-2" width="104" height="28.65" fill="#FFFFFF" stroke="none"/>
</clipPath>

<text clip-path="url(#Mask_Mask_7)" writing-mode="lr"/>
</g>

<g id="score" transform="matrix( 1, 0, 0, 1, 147.45,573.35) ">
<clipPath id="Mask_Mask_8">
<rect x="-2" y="-2" width="104" height="28.65" fill="#FFFFFF" stroke="none"/>
</clipPath>

<text clip-path="url(#Mask_Mask_8)" writing-mode="lr"><tspan x="0" y="19.3" baseline-shift="0%" font-family="Wide Latin" font-size="20" fill="#330000" xml:space="preserve">0</tspan></text>
</g>

<g id="bird2" transform="matrix( 1, 0, 0, 1, 224.25,297.7) ">
<g transform="matrix( 1, 0, 0, 1, 68.85,40.75) ">
<g transform="matrix( 1, 0, 0, 1, 0,0) ">
<use xlink:href="#lsd_12_copy_2_0_Layer0_0_FILL"/>

<use xlink:href="#lsd_12_copy_2_0_Layer0_0_1_STROKES"/>
</g>
</g>
</g>

<g id="bird" transform="matrix( 1, 0, 0, 1, 231.45,441.6) ">
<g transform="matrix( 1, 0, 0, 1, 68.85,40.75) ">
<g transform="matrix( 1, 0, 0, 1, 0,0) ">
<use xlink:href="#lsd_12_copy_2_0_Layer0_0_FILL"/>

<use xlink:href="#lsd_12_copy_2_0_Layer0_0_1_STROKES"/>
</g>
</g>
</g>
</svg>
